<svg xmlns="http://www.w3.org/2000/svg" viewBox="0 0 200.99 56.32"><defs><style>.cls-1{fill:#ebb529;}</style></defs><title>資產 4</title><g id="圖層_2" data-name="圖層 2"><g id="圖層_1-2" data-name="圖層 1"><path class="cls-1" d="M40.2,24v8.53s-1.08,0-1.55,0q-2.22,0-2.22,3.4V46.15a.07.07,0,0,1-.07.07h-8a.07.07,0,0,1-.07-.07V34.34a10.68,10.68,0,0,1,2.57-7.51A8.88,8.88,0,0,1,37.72,24Z"/><path class="cls-1" d="M86.66,24.52,77,45.9a.21.21,0,0,1-.38,0L67.17,24.52a.21.21,0,0,1,.19-.3h7.15a.21.21,0,0,1,.2.13l2,5.13a.21.21,0,0,0,.39,0l2.22-5.14a.21.21,0,0,1,.19-.13h6.94A.21.21,0,0,1,86.66,24.52Z"/><path class="cls-1" d="M111.6,34.93A10.77,10.77,0,0,0,100.65,24a10.94,10.94,0,0,0-8,3.23,10.7,10.7,0,0,0-3.26,7.91A10.64,10.64,0,0,0,92.61,43a10.92,10.92,0,0,0,8,3.19,11.19,11.19,0,0,0,7.08-2.5l-4.55-5.47a3.19,3.19,0,0,1-2.31,1.2,2.79,2.79,0,0,1-2.38-1.28,4.77,4.77,0,0,1-.73-1.73h13.83Q111.6,35.4,111.6,34.93ZM97.88,32.64a4.45,4.45,0,0,1,.57-1.1,2.9,2.9,0,0,1,2.44-1.27,2.51,2.51,0,0,1,2.67,2.37Z"/><path class="cls-1" d="M122.85,34.11V16.46h-8.08v18a12.17,12.17,0,0,0,2.59,8.06,10.63,10.63,0,0,0,3.79,2.85,11.53,11.53,0,0,0,3,.9V37.85C123.28,37.19,122.85,36,122.85,34.11Z"/><path class="cls-1" d="M67.17,2.44a5.9,5.9,0,0,0-2.26-.76,1.61,1.61,0,0,1-.63-.25A6.22,6.22,0,0,0,61.54.18a13.18,13.18,0,0,0-4.27,0q-2.61.52-5.19,1.13c-2.31.55-4.6,1.14-6.9,1.73L37.55,5,33.26,6.07,26.9,7.71,19.64,9.57a6.93,6.93,0,0,1-2.17.44,5.8,5.8,0,0,1-3.36-1.08Q9.11,5,4.13,1A1.25,1.25,0,0,0,3.06.72c-.66.13-1.32.28-2,.43L0,1.42,6.13,13.67,4,14.59H4l-.09,0-.6.25h0l-1.13.47.29,1.1H14V46.22h8.85V16.46H42.21a.6.6,0,0,0,.58-.77l-.3-1h0c-.13-.38-.19-.79-.29-1.18-.05-.2,0-.28.21-.33l6-1.51c3.35-.86,6.7-1.74,10.05-2.59a35.81,35.81,0,0,0,5.82-1.87,10.57,10.57,0,0,0,2.94-1.73A3.42,3.42,0,0,0,68,4.39,1.6,1.6,0,0,0,67.17,2.44Z"/><path class="cls-1" d="M65.58,35.1a11.18,11.18,0,0,0-3-8.06,10.94,10.94,0,0,0-8.16-3,11,11,0,0,0-11.12,11.1A10.69,10.69,0,0,0,46.54,43a11,11,0,0,0,8,3.16h11V35.1Zm-9.44,3.24a3.65,3.65,0,0,1-4.91-4.91,3.18,3.18,0,0,1,1.55-1.55,3.65,3.65,0,0,1,4.91,4.91A3.18,3.18,0,0,1,56.14,38.34Z"/><path class="cls-1" d="M175.18,35.1a11.18,11.18,0,0,0-3-8.06,10.94,10.94,0,0,0-8.16-3,11,11,0,0,0-11.12,11.1A10.69,10.69,0,0,0,156.14,43a11,11,0,0,0,8,3.16h11V35.1Zm-9.44,3.24a3.65,3.65,0,0,1-4.91-4.91,3.18,3.18,0,0,1,1.55-1.55,3.65,3.65,0,0,1,4.91,4.91A3.18,3.18,0,0,1,165.74,38.34Z"/><path class="cls-1" d="M138.47,24.34a10.93,10.93,0,0,0-3.09.45V16.47h-7.85V35.28a10.94,10.94,0,1,0,10.94-10.94Zm0,14.52a3.58,3.58,0,1,1,3.58-3.58A3.58,3.58,0,0,1,138.47,38.86Z"/><path class="cls-1" d="M201,35.47a20.24,20.24,0,0,0-.22-2.6A11.14,11.14,0,0,0,190,24h-.17a11.14,11.14,0,1,0,2.58,22,4.61,4.61,0,0,1-.8,1.53,4.17,4.17,0,0,1-3.4,1.45h-1.88v7.16a10.32,10.32,0,0,0,2.73.19,11.09,11.09,0,0,0,8.6-3.63,13.5,13.5,0,0,0,3.3-9.45V36.07C201,35.87,201,35.67,201,35.47Zm-11.12,3.67a3.66,3.66,0,0,1-.47-7.29,2.78,2.78,0,0,1,.69-.09,2.5,2.5,0,0,1,2.1.89,3.65,3.65,0,0,1-2.32,6.49Z"/></g></g></svg>