<svg xmlns="http://www.w3.org/2000/svg" width="60" height="60" viewBox="0 0 60 60">
  <path id="Icon_open-magnifying-glass" data-name="Icon open-magnifying-glass" d="M26.014.029a26.014,26.014,0,1,0,0,52.029,25.712,25.712,0,0,0,12.338-3.047,7.432,7.432,0,0,0,.966.966l7.433,7.433a7.581,7.581,0,1,0,10.7-10.7l-7.433-7.433a7.433,7.433,0,0,0-1.189-.966A25.665,25.665,0,0,0,52.1,25.969,26.043,26.043,0,0,0,26.089-.045Zm0,7.433A18.494,18.494,0,0,1,44.6,26.044a18.638,18.638,0,0,1-4.906,12.784l-.223.223a7.433,7.433,0,0,0-.966.966A18.6,18.6,0,0,1,25.94,44.7a18.582,18.582,0,1,1,0-37.163Z" transform="translate(0 0.045)" fill="#ebb528"/>
</svg>
